<?xml version="1.0" encoding="utf-8"?>
<!-- Generator: Adobe Illustrator 27.8.1, SVG Export Plug-In . SVG Version: 6.00 Build 0)  -->
<svg version="1.1" id="Layer_1" xmlns="http://www.w3.org/2000/svg" xmlns:xlink="http://www.w3.org/1999/xlink" x="0px" y="0px"
	 viewBox="0 0 127.9 33" style="enable-background:new 0 0 127.9 33;" xml:space="preserve">
<style type="text/css">
	.st0{fill-rule:evenodd;clip-rule:evenodd;}
	.st1{fill:#707070;}
</style>
<path class="st0" d="M30.9,25.8l-5.8,5.8l1.3,1.3l5.9-5.9c2.6,2.2,5.9,3.5,9.6,3.5c8.2,0,14.9-6.7,14.9-14.9c0-3.7-1.3-7-3.5-9.6
	l4.8-4.8L56.8,0L52,4.7c-2.7-2.5-6.2-4-10.2-4c-8.2,0-14.9,6.7-14.9,14.9C26.9,19.6,28.5,23.2,30.9,25.8z M33.6,25.8
	c2.3,1.8,5.1,3,8.3,3c7.2,0,13.1-5.9,13.1-13.1c0-3.1-1.1-6-3-8.3L33.6,25.8z M50.7,6L32.2,24.5c-2.1-2.3-3.4-5.4-3.4-8.8
	c0-7.2,5.9-13.1,13.1-13.1C45.3,2.6,48.4,3.9,50.7,6z"/>
<path class="st1" d="M10.6,30.5c-2.2,0-4.2-0.4-6.2-1.1c-1.9-0.8-3.4-1.8-4.4-3l0.8-1c1,1.1,2.3,2,4.1,2.7c1.8,0.7,3.7,1.1,5.7,1.1
	c2.1,0,3.7-0.3,5.1-0.8c1.3-0.6,2.3-1.3,2.9-2.2c0.6-1,1-2,1-3.2c0-1.4-0.3-2.4-1-3.3c-0.7-0.8-1.6-1.5-2.7-1.9
	c-1.1-0.5-2.3-0.9-3.6-1.2c-1.3-0.3-2.6-0.6-4-1c-1.3-0.4-2.5-0.8-3.7-1.4c-1.1-0.6-2-1.3-2.7-2.3c-0.6-1-1-2.3-1-3.8
	c0-1.3,0.4-2.6,1.1-3.7s1.8-2.1,3.3-2.8C6.7,1,8.6,0.6,10.9,0.6c1.6,0,3.2,0.3,4.7,0.8c1.6,0.5,2.9,1.1,4,1.9l-0.6,1.1
	c-1.2-0.9-2.5-1.5-3.9-1.9c-1.4-0.4-2.8-0.6-4.1-0.6C9,1.9,7.4,2.2,6,2.8C4.7,3.3,3.8,4.1,3.2,5.1s-0.9,2-0.9,3.2
	c0,1.4,0.3,2.5,1,3.3c0.7,0.8,1.6,1.5,2.7,1.9c1.1,0.5,2.4,0.9,3.7,1.2s2.6,0.6,4,1c1.3,0.3,2.5,0.8,3.6,1.4c1.1,0.6,2,1.3,2.7,2.3
	c0.7,0.9,1,2.2,1,3.7c0,1.3-0.4,2.6-1.1,3.7c-0.7,1.2-1.8,2.1-3.4,2.8C14.9,30.2,12.9,30.5,10.6,30.5z"/>
<path class="st1" d="M64,30.4V0.8h1.4v28.3h17.3v1.3H64z"/>
<path class="st1" d="M88.6,30.4V0.8H90v29.6H88.6z"/>
<path class="st1" d="M100.8,30.4V0.8h11.4c3.2,0,5.9,0.6,8.2,1.9c2.3,1.3,4.2,3,5.4,5.2c1.3,2.2,2,4.7,2,7.6s-0.7,5.4-2,7.6
	c-1.3,2.2-3.1,3.9-5.4,5.2c-2.3,1.3-5.1,1.9-8.2,1.9H100.8z M102.2,29.1h9.9c2.9,0,5.4-0.6,7.6-1.7c2.2-1.2,3.8-2.7,5-4.8
	c1.2-2,1.8-4.4,1.8-7s-0.6-4.9-1.8-7c-1.2-2-2.8-3.6-5-4.8c-2.1-1.2-4.7-1.7-7.6-1.7h-9.9V29.1z"/>
</svg>
